<svg width="32" height="32" viewBox="0 0 32 32" fill="none" xmlns="http://www.w3.org/2000/svg">
<path d="M31.4062 27.1562H27.6875V16.4841C28.016 16.4166 28.3259 16.2783 28.5956 16.0789C28.8653 15.8795 29.0884 15.6238 29.2492 15.3295C29.4101 15.0352 29.505 14.7094 29.5273 14.3747C29.5495 14.0401 29.4987 13.7046 29.3782 13.3916L27.6875 8.9948V0.59375C27.6875 0.52398 27.6738 0.45489 27.6471 0.390428C27.6204 0.325965 27.5813 0.267394 27.5319 0.218059C27.4826 0.168724 27.424 0.129593 27.3596 0.102902C27.2951 0.0762104 27.226 0.0624817 27.1562 0.0625H4.84375C4.77398 0.0624817 4.70489 0.0762104 4.64043 0.102902C4.57597 0.129593 4.51739 0.168724 4.46806 0.218059C4.41872 0.267394 4.37959 0.325965 4.3529 0.390428C4.32621 0.45489 4.31248 0.52398 4.3125 0.59375V8.9948L2.6218 13.3916C2.50132 13.7046 2.45045 14.0401 2.47272 14.3747C2.49499 14.7094 2.58987 15.0352 2.75076 15.3295C2.91165 15.6238 3.1347 15.8795 3.40439 16.0789C3.67409 16.2783 3.98397 16.4166 4.3125 16.4841V27.1562H0.59375C0.52398 27.1562 0.45489 27.17 0.390428 27.1967C0.325965 27.2233 0.267394 27.2625 0.218059 27.3118C0.168724 27.3611 0.129593 27.4197 0.102902 27.4842C0.0762104 27.5486 0.0624817 27.6177 0.0625 27.6875V31.4062C0.0624817 31.476 0.0762104 31.5451 0.102902 31.6096C0.129593 31.674 0.168724 31.7326 0.218059 31.7819C0.267394 31.8313 0.325965 31.8704 0.390428 31.8971C0.45489 31.9238 0.52398 31.9375 0.59375 31.9375H31.4062C31.476 31.9375 31.5451 31.9238 31.6096 31.8971C31.674 31.8704 31.7326 31.8313 31.7819 31.7819C31.8313 31.7326 31.8704 31.674 31.8971 31.6096C31.9238 31.5451 31.9375 31.476 31.9375 31.4062V27.6875C31.9375 27.6177 31.9238 27.5486 31.8971 27.4842C31.8704 27.4197 31.8313 27.3611 31.7819 27.3118C31.7326 27.2625 31.674 27.2233 31.6096 27.1967C31.5451 27.17 31.476 27.1562 31.4062 27.1562V27.1562ZM25.5625 27.1562V15.8254C25.8532 16.1267 26.2205 16.3432 26.625 16.4515V27.1562H25.5625ZM21.3125 27.6875V30.875H19.1875V27.1562H20.25C20.3909 27.1562 20.526 27.1003 20.6256 27.0006C20.7253 26.901 20.7812 26.7659 20.7812 26.625V25.0312C20.7812 24.8904 20.7253 24.7552 20.6256 24.6556C20.526 24.556 20.3909 24.5 20.25 24.5H17.0625C16.9216 24.5 16.7865 24.556 16.6869 24.6556C16.5872 24.7552 16.5313 24.8904 16.5312 25.0312V26.625C16.5313 26.7659 16.5872 26.901 16.6869 27.0006C16.7865 27.1003 16.9216 27.1562 17.0625 27.1562H18.125V30.875H16V27.6875C16 27.6177 15.9863 27.5486 15.9596 27.4842C15.9329 27.4197 15.8938 27.3611 15.8444 27.3118C15.7951 27.2625 15.7365 27.2233 15.6721 27.1967C15.6076 27.17 15.5385 27.1562 15.4688 27.1562H14.4062V25.5625C14.4063 25.4927 14.3925 25.4236 14.3658 25.3592C14.3392 25.2947 14.3 25.2361 14.2507 25.1868C14.2014 25.1375 14.1428 25.0983 14.0783 25.0717C14.0139 25.045 13.9448 25.0312 13.875 25.0312H12.8125V16.4828C13.3275 16.3762 13.7907 16.0969 14.1254 15.6912C14.1579 15.7317 14.1924 15.7709 14.2289 15.8094C14.444 16.0384 14.7039 16.2207 14.9925 16.3449C15.2811 16.4691 15.5922 16.5325 15.9064 16.5312H16.0936C16.4078 16.5325 16.7189 16.4691 17.0075 16.3449C17.2961 16.2207 17.556 16.0384 17.771 15.8094C17.8076 15.7709 17.8421 15.7317 17.8746 15.6912C17.9514 15.7837 18.0351 15.8701 18.125 15.9497V17.5938C17.4207 17.5945 16.7455 17.8745 16.2475 18.3725C15.7495 18.8705 15.4695 19.5457 15.4687 20.25C15.4687 20.3198 15.4825 20.3889 15.5091 20.4533C15.5358 20.5178 15.575 20.5764 15.6243 20.6257C15.6736 20.675 15.7322 20.7142 15.7967 20.7408C15.8611 20.7675 15.9302 20.7813 16 20.7812H21.3125C21.3823 20.7813 21.4514 20.7675 21.5158 20.7408C21.5803 20.7142 21.6389 20.675 21.6882 20.6257C21.7375 20.5764 21.7767 20.5178 21.8033 20.4533C21.83 20.3889 21.8438 20.3198 21.8437 20.25C21.843 19.5457 21.563 18.8705 21.065 18.3725C20.567 17.8745 19.8918 17.5945 19.1875 17.5938V16.4828C19.3419 16.5151 19.4992 16.5314 19.657 16.5312H19.823C20.1583 16.5315 20.4896 16.4587 20.7938 16.3178C21.0981 16.177 21.368 15.9716 21.5848 15.7158C21.5987 15.6998 21.612 15.6832 21.6246 15.6666C21.841 15.9373 22.1157 16.1557 22.4282 16.3054C22.7407 16.4551 23.083 16.5323 23.4295 16.5312H23.5325C23.8663 16.5319 24.1964 16.4603 24.5 16.3214V25.0312H23.4375C23.3677 25.0312 23.2986 25.045 23.2342 25.0717C23.1697 25.0983 23.1111 25.1375 23.0618 25.1868C23.0125 25.2361 22.9733 25.2947 22.9467 25.3592C22.92 25.4236 22.9062 25.4927 22.9062 25.5625V27.1562H21.8438C21.774 27.1562 21.7049 27.17 21.6404 27.1967C21.576 27.2233 21.5174 27.2625 21.4681 27.3118C21.4187 27.3611 21.3796 27.4197 21.3529 27.4842C21.3262 27.5486 21.3125 27.6177 21.3125 27.6875V27.6875ZM17.5938 26.0938V25.5625H19.7188V26.0938H17.5938ZM7.26359 13.8929L8.43633 9.625H10.5925L9.80164 14.4242C9.75429 14.7163 9.60431 14.982 9.37864 15.1735C9.15297 15.3649 8.86642 15.4696 8.57047 15.4688H8.46754C8.27573 15.4687 8.08651 15.4244 7.91458 15.3393C7.74265 15.2543 7.59263 15.1308 7.47618 14.9783C7.35973 14.8259 7.27997 14.6487 7.2431 14.4605C7.20623 14.2722 7.21324 14.078 7.26359 13.8929V13.8929ZM7.5 16.3214C7.80362 16.4603 8.13367 16.5319 8.46754 16.5312H8.57047C8.917 16.5323 9.2593 16.4551 9.57182 16.3054C9.88435 16.1557 10.159 15.9373 10.3754 15.6666C10.388 15.6832 10.4013 15.6998 10.4152 15.7158C10.7578 16.12 11.2292 16.3939 11.75 16.4914V19.1875H7.5V16.3214ZM12.177 15.4688C11.9959 15.4688 11.817 15.4295 11.6526 15.3534C11.4883 15.2774 11.3425 15.1665 11.2253 15.0284C11.1082 14.8903 11.0225 14.7284 10.9742 14.5539C10.9259 14.3794 10.9163 14.1964 10.9458 14.0178L11.6696 9.625H13.8451L13.5888 14.2894C13.5713 14.608 13.4324 14.9077 13.2007 15.1271C12.969 15.3465 12.6621 15.4687 12.343 15.4688H12.177ZM16.9994 15.0789C16.8832 15.2026 16.7429 15.3009 16.587 15.368C16.4312 15.4351 16.2633 15.4694 16.0936 15.4688H15.9064C15.7371 15.4687 15.5695 15.4342 15.4139 15.3674C15.2584 15.3005 15.118 15.2027 15.0015 15.0799C14.8849 14.9571 14.7946 14.8118 14.736 14.653C14.6774 14.4941 14.6517 14.325 14.6606 14.1559L14.909 9.625H17.0911L17.3394 14.1526V14.1559C17.3491 14.3248 17.3239 14.494 17.2654 14.6528C17.207 14.8116 17.1164 14.9566 16.9994 15.0789ZM18.4112 14.2894L18.1549 9.625H20.3304L21.0542 14.0178C21.0837 14.1964 21.0741 14.3794 21.0258 14.5539C20.9775 14.7284 20.8918 14.8903 20.7747 15.0284C20.6575 15.1665 20.5117 15.2774 20.3474 15.3534C20.183 15.4295 20.0041 15.4688 19.823 15.4688H19.657C19.3379 15.4687 19.031 15.3465 18.7993 15.1271C18.5676 14.9077 18.4287 14.608 18.4112 14.2894V14.2894ZM19.1875 18.6562C19.517 18.6566 19.8383 18.759 20.1074 18.9492C20.3764 19.1394 20.58 19.4082 20.6903 19.7188H16.6222C16.7325 19.4082 16.9361 19.1394 17.2051 18.9492C17.4742 18.759 17.7955 18.6566 18.125 18.6562H19.1875ZM24.5246 14.9774C24.4087 15.1306 24.2587 15.2548 24.0865 15.3401C23.9143 15.4254 23.7246 15.4694 23.5325 15.4688H23.4295C23.1336 15.4696 22.847 15.3649 22.6214 15.1735C22.3957 14.982 22.2457 14.7163 22.1984 14.4242L21.4075 9.625H23.5637L24.7357 13.8903C24.7357 13.8909 24.7364 13.8923 24.7364 13.8929C24.7874 14.0778 24.7947 14.2719 24.758 14.46C24.7212 14.6482 24.6413 14.8253 24.5246 14.9774V14.9774ZM23.9688 26.0938H24.5V27.1562H23.9688V26.0938ZM28.3868 13.7727C28.4595 13.9618 28.4851 14.1657 28.4614 14.3668C28.4377 14.568 28.3654 14.7604 28.2508 14.9273C28.1361 15.0943 27.9825 15.2308 27.8033 15.3252C27.624 15.4195 27.4245 15.4688 27.222 15.4688C26.9488 15.4681 26.6834 15.3782 26.4661 15.2126C26.2488 15.047 26.0917 14.8149 26.0187 14.5517L24.6654 9.625H26.7917L28.3868 13.7727ZM5.375 1.125H26.625V8.5625H5.375V1.125ZM3.74937 14.9275C3.63329 14.7612 3.56011 14.5687 3.53636 14.3672C3.51261 14.1658 3.53902 13.9615 3.61324 13.7727L5.20832 9.625H7.33465L5.98129 14.5517C5.90827 14.8149 5.75115 15.047 5.53389 15.2126C5.31663 15.3782 5.05117 15.4681 4.77801 15.4688C4.57524 15.4702 4.37525 15.4216 4.1958 15.3272C4.01635 15.2328 3.863 15.0955 3.74937 14.9275V14.9275ZM5.375 16.4515C5.77946 16.3432 6.14677 16.1267 6.4375 15.8254V27.1562H5.375V16.4515ZM9.625 30.875H1.125V28.2188H9.625V30.875ZM10.1562 27.1562H7.5V20.25H11.75V30.875H10.6875V27.6875C10.6875 27.6177 10.6738 27.5486 10.6471 27.4842C10.6204 27.4197 10.5813 27.3611 10.5319 27.3118C10.4826 27.2625 10.424 27.2233 10.3596 27.1967C10.2951 27.17 10.226 27.1562 10.1562 27.1562V27.1562ZM12.8125 26.0938H13.3438V27.6875C13.3437 27.7573 13.3575 27.8264 13.3842 27.8908C13.4108 27.9553 13.45 28.0139 13.4993 28.0632C13.5486 28.1125 13.6072 28.1517 13.6717 28.1783C13.7361 28.205 13.8052 28.2188 13.875 28.2188H14.9375V30.875H12.8125V26.0938ZM30.875 30.875H22.375V28.2188H30.875V30.875Z" fill="#FF2222"/>
</svg>
